# xmcd CD database file
#
# Track frame offsets:
#	150
#	26692
#	49697
#	72382
#	107035
#	139637
#
# Disc length: 4440 seconds
#
# Revision: 1
# Processed by: cddbd v1.5.1PL0 Copyright (c) Steve Scherf et al.
# Submitted via: CDex 1.51
#
DISCID=4f115606
DTITLE=Breath Mark - 太陽の人
DYEAR=2002
DGENRE=New Age
TTITLE0=太陽の人
TTITLE1=optimism
TTITLE2=crime
TTITLE3=humba rumba
TTITLE4=survive
TTITLE5=cccd
EXTD=YEAR: 2002
EXTT0=
EXTT1=
EXTT2=
EXTT3=
EXTT4=
EXTT5=
PLAYORDER=
